:FULLY-SPECIFIED
:FORCE-ALL-JOINTS-BE-3DOF
:DEGREES
1053
root 1.2061 15.1596 32.552 4.89495 -3.39844 363.449
lfemur 8.79269 0.464385 5.67378
ltibia 2.95556e-14 0 0
lfoot -30.3847 -11.1908 0
ltoes -34.2348 0 0
rfemur -31.0547 -15.6723 -6.30567
rtibia 50.0138 0 0
rfoot -21.862 5.42734 0
rtoes -40.9498 0 0
lowerback -1.82814 -0.0539315 -0.243543
upperback -0.481936 -0.0341365 -6.04241
thorax 0.526984 -0.0186683 -6.12666
lowerneck -7.01303 0.739451 6.54359
upperneck 1.28668 0.300419 3.67415
head 1.59525 0.276917 0.058077
lclavicle -1.87742e-15 4.25252e-14 0
lhumerus -58.71 -46.8776 115.407
lradius 55.8097 0 0
lwrist 25.5482 0 0
lhand 37.4307 25.3087 0
lfingers 7.12502 0 0
lthumb 60.2334 38.8416 0
rclavicle -1.87742e-15 4.25252e-14 0
rhumerus 2.13565 -23.5297 0.624103
rradius 27.485 0 0
rwrist -9.71918 0 0
rhand -30.524 -42.0372 0
rfingers 7.12502 0 0
rthumb -3.82353 -791.983 0
1054
root 1.20774 15.1602 32.5566 4.89472 -3.38429 363.434
lfemur 8.80617 0.452509 5.68267
ltibia 3.26007e-14 0 0
lfoot -30.3961 -11.172 0
ltoes -34.257 0 0
rfemur -31.0141 -15.6517 -6.30468
rtibia 49.9954 0 0
rfoot -21.8565 5.40695 0
rtoes -40.9352 0 0
lowerback -1.84308 -0.0541347 -0.248718
upperback -0.479763 -0.0336436 -6.03594
thorax 0.537677 -0.0182416 -6.11686
lowerneck -7.03137 0.725412 6.52804
upperneck 1.3088 0.279768 3.68995
head 1.60534 0.267906 0.0649892
lclavicle 1.9878e-16 3.97569e-14 0
lhumerus -58.7082 -46.899 115.416
lradius 55.8122 0 0
lwrist 25.565 0 0
lhand 37.4417 25.3026 0
lfingers 7.12502 0 0
lthumb 60.2428 38.8254 0
rclavicle 1.9878e-16 3.97569e-14 0
rhumerus 2.10403 -23.5139 0.639532
rradius 27.4832 0 0
rwrist -9.69267 0 0
rhand -30.5237 -42.011 0
rfingers 7.12502 0 0
rthumb -3.82325 -791.957 0
1055
root 1.20939 15.1607 32.5613 4.89449 -3.37014 363.419
lfemur 8.81964 0.440632 5.69155
ltibia 3.56458e-14 0 0
lfoot -30.4076 -11.1532 0
ltoes -34.2793 0 0
rfemur -30.9734 -15.6312 -6.30368
rtibia 49.9769 0 0
rfoot -21.851 5.38655 0
rtoes -40.9206 0 0
lowerback -1.85802 -0.0543379 -0.253893
upperback -0.477589 -0.0331508 -6.02947
thorax 0.548371 -0.0178149 -6.10707
lowerneck -7.04971 0.711373 6.51249
upperneck 1.33093 0.259116 3.70575
head 1.61543 0.258894 0.0719015
lclavicle 2.27498e-15 3.69886e-14 0
lhumerus -58.7064 -46.9204 115.424
lradius 55.8146 0 0
lwrist 25.5819 0 0
lhand 37.4528 25.2965 0
lfingers 7.12502 0 0
lthumb 60.2521 38.8092 0
rclavicle 2.27498e-15 3.69886e-14 0
rhumerus 2.07241 -23.498 0.654961
rradius 27.4814 0 0
rwrist -9.66617 0 0
rhand -30.5235 -41.9848 0
rfingers 7.12502 0 0
rthumb -3.82296 -791.93 0
1056
root 1.21099 15.1611 32.5659 4.89426 -3.35644 363.404
lfemur 8.83268 0.429135 5.70015
ltibia 3.85937e-14 0 0
lfoot -30.4187 -11.135 0
ltoes -34.3008 0 0
rfemur -30.934 -15.6114 -6.30273
rtibia 49.959 0 0
rfoot -21.8456 5.36681 0
rtoes -40.9064 0 0
lowerback -1.87248 -0.0545346 -0.258903
upperback -0.475485 -0.0326737 -6.02322
thorax 0.558724 -0.0174018 -6.09758
lowerneck -7.06746 0.697782 6.49744
upperneck 1.35235 0.239123 3.72105
head 1.6252 0.250171 0.0785931
lclavicle 4.28491e-15 3.43087e-14 0
lhumerus -58.7046 -46.9411 115.432
lradius 55.817 0 0
lwrist 25.5982 0 0
lhand 37.4634 25.2906 0
lfingers 7.12502 0 0
lthumb 60.2612 38.7936 0
rclavicle 4.28491e-15 3.43087e-14 0
rhumerus 2.04181 -23.4827 0.669898
rradius 27.4796 0 0
rwrist -9.64051 0 0
rhand -30.5232 -41.9595 0
rfingers 7.12502 0 0
rthumb -3.82269 -791.905 0
